<svg xmlns="http://www.w3.org/2000/svg" width="1080" height="410" viewBox="0 0 1080 410">
<rect width="100%" height="100%" fill="white"/>
<style>text{font-family:-apple-system,BlinkMacSystemFont,"Segoe UI",sans-serif;fill:#202124}.axis{stroke:#333;stroke-width:1}.grid{stroke:#e1e5ea;stroke-width:1}.label{font-size:12px}.title{font-size:18px;font-weight:700}.subtitle{font-size:12px;fill:#555}.box{fill:#f7f9fc;stroke:#7b8794;stroke-width:1.2}.arrow{stroke:#333;stroke-width:1.5;marker-end:url(#arrow)}</style>
<defs><marker id="arrow" markerWidth="10" markerHeight="10" refX="8" refY="3" orient="auto" markerUnits="strokeWidth"><path d="M0,0 L0,6 L9,3 z" fill="#333"/></marker></defs>
<text x="24.0" y="32.0" font-size="20" font-weight="700" text-anchor="start">Confusion Matrices On Fixed Test Split</text>
<text x="35.0" y="60.0" font-size="12" font-weight="700" text-anchor="start">PREG-Net</text>
<rect x="75" y="90" width="62" height="62" fill="#3564b5" stroke="#ffffff" stroke-width="2"/>
<text x="106.0" y="126.0" font-size="18" font-weight="700" text-anchor="middle" fill="#ffffff">88</text>
<rect x="137" y="90" width="62" height="62" fill="#ebf2fa" stroke="#ffffff" stroke-width="2"/>
<text x="168.0" y="126.0" font-size="18" font-weight="700" text-anchor="middle" fill="#202124">5</text>
<rect x="75" y="152" width="62" height="62" fill="#f3f9fe" stroke="#ffffff" stroke-width="2"/>
<text x="106.0" y="188.0" font-size="18" font-weight="700" text-anchor="middle" fill="#202124">1</text>
<rect x="137" y="152" width="62" height="62" fill="#b8cbe7" stroke="#ffffff" stroke-width="2"/>
<text x="168.0" y="188.0" font-size="18" font-weight="700" text-anchor="middle" fill="#202124">28</text>
<text x="137.0" y="232.0" font-size="10" font-weight="400" text-anchor="middle">Predicted</text>
<text x="45.0" y="152.0" font-size="10" font-weight="400" text-anchor="middle">Actual</text>
<text x="240.0" y="60.0" font-size="12" font-weight="700" text-anchor="start">FETA-Transformer</text>
<rect x="280" y="90" width="62" height="62" fill="#3564b5" stroke="#ffffff" stroke-width="2"/>
<text x="311.0" y="126.0" font-size="18" font-weight="700" text-anchor="middle" fill="#ffffff">88</text>
<rect x="342" y="90" width="62" height="62" fill="#ebf2fa" stroke="#ffffff" stroke-width="2"/>
<text x="373.0" y="126.0" font-size="18" font-weight="700" text-anchor="middle" fill="#202124">5</text>
<rect x="280" y="152" width="62" height="62" fill="#eff5fc" stroke="#ffffff" stroke-width="2"/>
<text x="311.0" y="188.0" font-size="18" font-weight="700" text-anchor="middle" fill="#202124">3</text>
<rect x="342" y="152" width="62" height="62" fill="#bdcee9" stroke="#ffffff" stroke-width="2"/>
<text x="373.0" y="188.0" font-size="18" font-weight="700" text-anchor="middle" fill="#202124">26</text>
<text x="342.0" y="232.0" font-size="10" font-weight="400" text-anchor="middle">Predicted</text>
<text x="250.0" y="152.0" font-size="10" font-weight="400" text-anchor="middle">Actual</text>
<text x="445.0" y="60.0" font-size="12" font-weight="700" text-anchor="start">Ensemble</text>
<rect x="485" y="90" width="62" height="62" fill="#3765b6" stroke="#ffffff" stroke-width="2"/>
<text x="516.0" y="126.0" font-size="18" font-weight="700" text-anchor="middle" fill="#ffffff">87</text>
<rect x="547" y="90" width="62" height="62" fill="#e8f0f9" stroke="#ffffff" stroke-width="2"/>
<text x="578.0" y="126.0" font-size="18" font-weight="700" text-anchor="middle" fill="#202124">6</text>
<rect x="485" y="152" width="62" height="62" fill="#f3f9fe" stroke="#ffffff" stroke-width="2"/>
<text x="516.0" y="188.0" font-size="18" font-weight="700" text-anchor="middle" fill="#202124">1</text>
<rect x="547" y="152" width="62" height="62" fill="#b8cbe7" stroke="#ffffff" stroke-width="2"/>
<text x="578.0" y="188.0" font-size="18" font-weight="700" text-anchor="middle" fill="#202124">28</text>
<text x="547.0" y="232.0" font-size="10" font-weight="400" text-anchor="middle">Predicted</text>
<text x="455.0" y="152.0" font-size="10" font-weight="400" text-anchor="middle">Actual</text>
<text x="650.0" y="60.0" font-size="12" font-weight="700" text-anchor="start">Learned Ensemble</text>
<rect x="690" y="90" width="62" height="62" fill="#3765b6" stroke="#ffffff" stroke-width="2"/>
<text x="721.0" y="126.0" font-size="18" font-weight="700" text-anchor="middle" fill="#ffffff">87</text>
<rect x="752" y="90" width="62" height="62" fill="#e8f0f9" stroke="#ffffff" stroke-width="2"/>
<text x="783.0" y="126.0" font-size="18" font-weight="700" text-anchor="middle" fill="#202124">6</text>
<rect x="690" y="152" width="62" height="62" fill="#f3f9fe" stroke="#ffffff" stroke-width="2"/>
<text x="721.0" y="188.0" font-size="18" font-weight="700" text-anchor="middle" fill="#202124">1</text>
<rect x="752" y="152" width="62" height="62" fill="#b8cbe7" stroke="#ffffff" stroke-width="2"/>
<text x="783.0" y="188.0" font-size="18" font-weight="700" text-anchor="middle" fill="#202124">28</text>
<text x="752.0" y="232.0" font-size="10" font-weight="400" text-anchor="middle">Predicted</text>
<text x="660.0" y="152.0" font-size="10" font-weight="400" text-anchor="middle">Actual</text>
<text x="855.0" y="60.0" font-size="12" font-weight="700" text-anchor="start">Torch Logistic Regression</text>
<rect x="895" y="90" width="62" height="62" fill="#426eba" stroke="#ffffff" stroke-width="2"/>
<text x="926.0" y="126.0" font-size="18" font-weight="700" text-anchor="middle" fill="#ffffff">82</text>
<rect x="957" y="90" width="62" height="62" fill="#dde8f5" stroke="#ffffff" stroke-width="2"/>
<text x="988.0" y="126.0" font-size="18" font-weight="700" text-anchor="middle" fill="#202124">11</text>
<rect x="895" y="152" width="62" height="62" fill="#f3f9fe" stroke="#ffffff" stroke-width="2"/>
<text x="926.0" y="188.0" font-size="18" font-weight="700" text-anchor="middle" fill="#202124">1</text>
<rect x="957" y="152" width="62" height="62" fill="#b8cbe7" stroke="#ffffff" stroke-width="2"/>
<text x="988.0" y="188.0" font-size="18" font-weight="700" text-anchor="middle" fill="#202124">28</text>
<text x="957.0" y="232.0" font-size="10" font-weight="400" text-anchor="middle">Predicted</text>
<text x="865.0" y="152.0" font-size="10" font-weight="400" text-anchor="middle">Actual</text>
<text x="35.0" y="230.0" font-size="12" font-weight="700" text-anchor="start">MLP</text>
<rect x="75" y="260" width="62" height="62" fill="#2f5fb3" stroke="#ffffff" stroke-width="2"/>
<text x="106.0" y="296.0" font-size="18" font-weight="700" text-anchor="middle" fill="#ffffff">91</text>
<rect x="137" y="260" width="62" height="62" fill="#f1f7fd" stroke="#ffffff" stroke-width="2"/>
<text x="168.0" y="296.0" font-size="18" font-weight="700" text-anchor="middle" fill="#202124">2</text>
<rect x="75" y="322" width="62" height="62" fill="#f6fbff" stroke="#ffffff" stroke-width="2"/>
<text x="106.0" y="358.0" font-size="18" font-weight="700" text-anchor="middle" fill="#202124">0</text>
<rect x="137" y="322" width="62" height="62" fill="#b6c9e6" stroke="#ffffff" stroke-width="2"/>
<text x="168.0" y="358.0" font-size="18" font-weight="700" text-anchor="middle" fill="#202124">29</text>
<text x="137.0" y="402.0" font-size="10" font-weight="400" text-anchor="middle">Predicted</text>
<text x="45.0" y="322.0" font-size="10" font-weight="400" text-anchor="middle">Actual</text>
<text x="240.0" y="230.0" font-size="12" font-weight="700" text-anchor="start">Sklearn Logistic Regression</text>
<rect x="280" y="260" width="62" height="62" fill="#3160b3" stroke="#ffffff" stroke-width="2"/>
<text x="311.0" y="296.0" font-size="18" font-weight="700" text-anchor="middle" fill="#ffffff">90</text>
<rect x="342" y="260" width="62" height="62" fill="#eff5fc" stroke="#ffffff" stroke-width="2"/>
<text x="373.0" y="296.0" font-size="18" font-weight="700" text-anchor="middle" fill="#202124">3</text>
<rect x="280" y="322" width="62" height="62" fill="#f3f9fe" stroke="#ffffff" stroke-width="2"/>
<text x="311.0" y="358.0" font-size="18" font-weight="700" text-anchor="middle" fill="#202124">1</text>
<rect x="342" y="322" width="62" height="62" fill="#b8cbe7" stroke="#ffffff" stroke-width="2"/>
<text x="373.0" y="358.0" font-size="18" font-weight="700" text-anchor="middle" fill="#202124">28</text>
<text x="342.0" y="402.0" font-size="10" font-weight="400" text-anchor="middle">Predicted</text>
<text x="250.0" y="322.0" font-size="10" font-weight="400" text-anchor="middle">Actual</text>
<text x="445.0" y="230.0" font-size="12" font-weight="700" text-anchor="start">Random Forest</text>
<rect x="485" y="260" width="62" height="62" fill="#3362b4" stroke="#ffffff" stroke-width="2"/>
<text x="516.0" y="296.0" font-size="18" font-weight="700" text-anchor="middle" fill="#ffffff">89</text>
<rect x="547" y="260" width="62" height="62" fill="#edf4fb" stroke="#ffffff" stroke-width="2"/>
<text x="578.0" y="296.0" font-size="18" font-weight="700" text-anchor="middle" fill="#202124">4</text>
<rect x="485" y="322" width="62" height="62" fill="#f1f7fd" stroke="#ffffff" stroke-width="2"/>
<text x="516.0" y="358.0" font-size="18" font-weight="700" text-anchor="middle" fill="#202124">2</text>
<rect x="547" y="322" width="62" height="62" fill="#bacce8" stroke="#ffffff" stroke-width="2"/>
<text x="578.0" y="358.0" font-size="18" font-weight="700" text-anchor="middle" fill="#202124">27</text>
<text x="547.0" y="402.0" font-size="10" font-weight="400" text-anchor="middle">Predicted</text>
<text x="455.0" y="322.0" font-size="10" font-weight="400" text-anchor="middle">Actual</text>
<text x="650.0" y="230.0" font-size="12" font-weight="700" text-anchor="start">HistGradientBoosting</text>
<rect x="690" y="260" width="62" height="62" fill="#3160b3" stroke="#ffffff" stroke-width="2"/>
<text x="721.0" y="296.0" font-size="18" font-weight="700" text-anchor="middle" fill="#ffffff">90</text>
<rect x="752" y="260" width="62" height="62" fill="#eff5fc" stroke="#ffffff" stroke-width="2"/>
<text x="783.0" y="296.0" font-size="18" font-weight="700" text-anchor="middle" fill="#202124">3</text>
<rect x="690" y="322" width="62" height="62" fill="#f1f7fd" stroke="#ffffff" stroke-width="2"/>
<text x="721.0" y="358.0" font-size="18" font-weight="700" text-anchor="middle" fill="#202124">2</text>
<rect x="752" y="322" width="62" height="62" fill="#bacce8" stroke="#ffffff" stroke-width="2"/>
<text x="783.0" y="358.0" font-size="18" font-weight="700" text-anchor="middle" fill="#202124">27</text>
<text x="752.0" y="402.0" font-size="10" font-weight="400" text-anchor="middle">Predicted</text>
<text x="660.0" y="322.0" font-size="10" font-weight="400" text-anchor="middle">Actual</text>
<text x="855.0" y="230.0" font-size="12" font-weight="700" text-anchor="start">XGBoost</text>
<rect x="895" y="260" width="62" height="62" fill="#3564b5" stroke="#ffffff" stroke-width="2"/>
<text x="926.0" y="296.0" font-size="18" font-weight="700" text-anchor="middle" fill="#ffffff">88</text>
<rect x="957" y="260" width="62" height="62" fill="#ebf2fa" stroke="#ffffff" stroke-width="2"/>
<text x="988.0" y="296.0" font-size="18" font-weight="700" text-anchor="middle" fill="#202124">5</text>
<rect x="895" y="322" width="62" height="62" fill="#f3f9fe" stroke="#ffffff" stroke-width="2"/>
<text x="926.0" y="358.0" font-size="18" font-weight="700" text-anchor="middle" fill="#202124">1</text>
<rect x="957" y="322" width="62" height="62" fill="#b8cbe7" stroke="#ffffff" stroke-width="2"/>
<text x="988.0" y="358.0" font-size="18" font-weight="700" text-anchor="middle" fill="#202124">28</text>
<text x="957.0" y="402.0" font-size="10" font-weight="400" text-anchor="middle">Predicted</text>
<text x="865.0" y="322.0" font-size="10" font-weight="400" text-anchor="middle">Actual</text>
</svg>
