<svg xmlns="http://www.w3.org/2000/svg" width="880" height="620" viewBox="0 0 880 620">
<rect width="100%" height="100%" fill="white"/>
<style>text{font-family:-apple-system,BlinkMacSystemFont,"Segoe UI",sans-serif;fill:#202124}.axis{stroke:#333;stroke-width:1}.grid{stroke:#e1e5ea;stroke-width:1}.label{font-size:12px}.title{font-size:18px;font-weight:700}.subtitle{font-size:12px;fill:#555}.box{fill:#f7f9fc;stroke:#7b8794;stroke-width:1.2}.arrow{stroke:#333;stroke-width:1.5;marker-end:url(#arrow)}</style>
<defs><marker id="arrow" markerWidth="10" markerHeight="10" refX="8" refY="3" orient="auto" markerUnits="strokeWidth"><path d="M0,0 L0,6 L9,3 z" fill="#333"/></marker></defs>
<text x="24.0" y="34.0" font-size="20" font-weight="700" text-anchor="start">ROC Curves On Fixed Test Split</text>
<line class="grid" x1="80.0" y1="70" x2="80.0" y2="510"/>
<line class="grid" x1="80" y1="510.0" x2="640" y2="510.0"/>
<text x="80.0" y="532.0" font-size="11" font-weight="400" text-anchor="middle">0.0</text>
<text x="64.0" y="514.0" font-size="11" font-weight="400" text-anchor="end">0.0</text>
<line class="grid" x1="192.0" y1="70" x2="192.0" y2="510"/>
<line class="grid" x1="80" y1="422.0" x2="640" y2="422.0"/>
<text x="192.0" y="532.0" font-size="11" font-weight="400" text-anchor="middle">0.2</text>
<text x="64.0" y="426.0" font-size="11" font-weight="400" text-anchor="end">0.2</text>
<line class="grid" x1="304.0" y1="70" x2="304.0" y2="510"/>
<line class="grid" x1="80" y1="334.0" x2="640" y2="334.0"/>
<text x="304.0" y="532.0" font-size="11" font-weight="400" text-anchor="middle">0.4</text>
<text x="64.0" y="338.0" font-size="11" font-weight="400" text-anchor="end">0.4</text>
<line class="grid" x1="416.0" y1="70" x2="416.0" y2="510"/>
<line class="grid" x1="80" y1="246.0" x2="640" y2="246.0"/>
<text x="416.0" y="532.0" font-size="11" font-weight="400" text-anchor="middle">0.6</text>
<text x="64.0" y="250.0" font-size="11" font-weight="400" text-anchor="end">0.6</text>
<line class="grid" x1="528.0" y1="70" x2="528.0" y2="510"/>
<line class="grid" x1="80" y1="158.0" x2="640" y2="158.0"/>
<text x="528.0" y="532.0" font-size="11" font-weight="400" text-anchor="middle">0.8</text>
<text x="64.0" y="162.0" font-size="11" font-weight="400" text-anchor="end">0.8</text>
<line class="grid" x1="640.0" y1="70" x2="640.0" y2="510"/>
<line class="grid" x1="80" y1="70.0" x2="640" y2="70.0"/>
<text x="640.0" y="532.0" font-size="11" font-weight="400" text-anchor="middle">1.0</text>
<text x="64.0" y="74.0" font-size="11" font-weight="400" text-anchor="end">1.0</text>
<line class="axis" x1="80" y1="510" x2="640" y2="510"/>
<line class="axis" x1="80" y1="70" x2="80" y2="510"/>
<line x1="80" y1="510" x2="640" y2="70" stroke="#999" stroke-width="1.2" stroke-dasharray="5 5"/>
<polyline points="80.0,510.0 80.0,494.8 80.0,479.7 80.0,464.5 80.0,449.3 80.0,434.1 80.0,419.0 80.0,403.8 80.0,388.6 80.0,373.4 80.0,358.3 80.0,343.1 80.0,327.9 80.0,312.8 80.0,297.6 80.0,282.4 80.0,267.2 80.0,252.1 80.0,236.9 80.0,221.7 80.0,206.6 80.0,191.4 80.0,176.2 80.0,161.0 80.0,145.9 80.0,130.7 86.0,130.7 86.0,115.5 86.0,100.3 86.0,85.2 86.0,70.0 92.0,70.0 98.1,70.0 104.1,70.0 110.1,70.0 116.1,70.0 122.2,70.0 128.2,70.0 134.2,70.0 140.2,70.0 146.2,70.0 152.3,70.0 158.3,70.0 164.3,70.0 170.3,70.0 176.3,70.0 182.4,70.0 188.4,70.0 194.4,70.0 200.4,70.0 206.5,70.0 212.5,70.0 218.5,70.0 224.5,70.0 230.5,70.0 236.6,70.0 242.6,70.0 248.6,70.0 254.6,70.0 260.6,70.0 266.7,70.0 272.7,70.0 278.7,70.0 284.7,70.0 290.8,70.0 296.8,70.0 302.8,70.0 308.8,70.0 314.8,70.0 320.9,70.0 326.9,70.0 332.9,70.0 338.9,70.0 344.9,70.0 351.0,70.0 357.0,70.0 363.0,70.0 369.0,70.0 375.1,70.0 381.1,70.0 387.1,70.0 393.1,70.0 399.1,70.0 405.2,70.0 411.2,70.0 417.2,70.0 423.2,70.0 429.2,70.0 435.3,70.0 441.3,70.0 447.3,70.0 453.3,70.0 459.4,70.0 465.4,70.0 471.4,70.0 477.4,70.0 483.4,70.0 489.5,70.0 495.5,70.0 501.5,70.0 507.5,70.0 513.5,70.0 519.6,70.0 525.6,70.0 531.6,70.0 537.6,70.0 543.7,70.0 549.7,70.0 555.7,70.0 561.7,70.0 567.7,70.0 573.8,70.0 579.8,70.0 585.8,70.0 591.8,70.0 597.8,70.0 603.9,70.0 609.9,70.0 615.9,70.0 621.9,70.0 628.0,70.0 634.0,70.0 640.0,70.0 640.0,70.0" fill="none" stroke="#111111" stroke-width="1.5" opacity="0.92"/>
<polyline points="80.0,510.0 80.0,494.8 80.0,479.7 80.0,464.5 80.0,449.3 80.0,434.1 80.0,419.0 80.0,403.8 80.0,388.6 80.0,373.4 80.0,358.3 80.0,343.1 80.0,327.9 80.0,312.8 80.0,297.6 80.0,282.4 80.0,267.2 80.0,252.1 80.0,236.9 80.0,221.7 80.0,206.6 80.0,191.4 80.0,176.2 86.0,176.2 86.0,161.0 86.0,145.9 86.0,130.7 86.0,115.5 86.0,100.3 92.0,100.3 92.0,85.2 98.1,85.2 98.1,70.0 104.1,70.0 110.1,70.0 116.1,70.0 122.2,70.0 128.2,70.0 134.2,70.0 140.2,70.0 146.2,70.0 152.3,70.0 158.3,70.0 164.3,70.0 170.3,70.0 176.3,70.0 182.4,70.0 188.4,70.0 194.4,70.0 200.4,70.0 206.5,70.0 212.5,70.0 218.5,70.0 224.5,70.0 230.5,70.0 236.6,70.0 242.6,70.0 248.6,70.0 254.6,70.0 260.6,70.0 266.7,70.0 272.7,70.0 278.7,70.0 284.7,70.0 290.8,70.0 296.8,70.0 302.8,70.0 308.8,70.0 314.8,70.0 320.9,70.0 326.9,70.0 332.9,70.0 338.9,70.0 344.9,70.0 351.0,70.0 357.0,70.0 363.0,70.0 369.0,70.0 375.1,70.0 381.1,70.0 387.1,70.0 393.1,70.0 399.1,70.0 405.2,70.0 411.2,70.0 417.2,70.0 423.2,70.0 429.2,70.0 435.3,70.0 441.3,70.0 447.3,70.0 453.3,70.0 459.4,70.0 465.4,70.0 471.4,70.0 477.4,70.0 483.4,70.0 489.5,70.0 495.5,70.0 501.5,70.0 507.5,70.0 513.5,70.0 519.6,70.0 525.6,70.0 531.6,70.0 537.6,70.0 543.7,70.0 549.7,70.0 555.7,70.0 561.7,70.0 567.7,70.0 573.8,70.0 579.8,70.0 585.8,70.0 591.8,70.0 597.8,70.0 603.9,70.0 609.9,70.0 615.9,70.0 621.9,70.0 628.0,70.0 634.0,70.0 640.0,70.0 640.0,70.0" fill="none" stroke="#d08c2d" stroke-width="1.5" opacity="0.92"/>
<polyline points="80.0,510.0 80.0,494.8 80.0,479.7 80.0,464.5 80.0,449.3 80.0,434.1 80.0,419.0 80.0,403.8 80.0,388.6 80.0,373.4 80.0,358.3 80.0,343.1 80.0,327.9 80.0,312.8 80.0,297.6 80.0,282.4 80.0,267.2 80.0,252.1 80.0,236.9 80.0,221.7 80.0,206.6 80.0,191.4 80.0,176.2 86.0,176.2 86.0,161.0 86.0,145.9 86.0,130.7 92.0,130.7 92.0,115.5 92.0,100.3 92.0,85.2 98.1,85.2 104.1,85.2 110.1,85.2 116.1,85.2 122.2,85.2 128.2,85.2 134.2,85.2 134.2,70.0 140.2,70.0 146.2,70.0 152.3,70.0 158.3,70.0 164.3,70.0 170.3,70.0 176.3,70.0 182.4,70.0 188.4,70.0 194.4,70.0 200.4,70.0 206.5,70.0 212.5,70.0 218.5,70.0 224.5,70.0 230.5,70.0 236.6,70.0 242.6,70.0 248.6,70.0 254.6,70.0 260.6,70.0 266.7,70.0 272.7,70.0 278.7,70.0 284.7,70.0 290.8,70.0 296.8,70.0 302.8,70.0 308.8,70.0 314.8,70.0 320.9,70.0 326.9,70.0 332.9,70.0 338.9,70.0 344.9,70.0 351.0,70.0 357.0,70.0 363.0,70.0 369.0,70.0 375.1,70.0 381.1,70.0 387.1,70.0 393.1,70.0 399.1,70.0 405.2,70.0 411.2,70.0 417.2,70.0 423.2,70.0 429.2,70.0 435.3,70.0 441.3,70.0 447.3,70.0 453.3,70.0 459.4,70.0 465.4,70.0 471.4,70.0 477.4,70.0 483.4,70.0 489.5,70.0 495.5,70.0 501.5,70.0 507.5,70.0 513.5,70.0 519.6,70.0 525.6,70.0 531.6,70.0 537.6,70.0 543.7,70.0 549.7,70.0 555.7,70.0 561.7,70.0 567.7,70.0 573.8,70.0 579.8,70.0 585.8,70.0 591.8,70.0 597.8,70.0 603.9,70.0 609.9,70.0 615.9,70.0 621.9,70.0 628.0,70.0 634.0,70.0 640.0,70.0 640.0,70.0" fill="none" stroke="#2f8f5b" stroke-width="2.6" opacity="0.92"/>
<polyline points="80.0,510.0 80.0,494.8 80.0,479.7 80.0,464.5 80.0,449.3 80.0,434.1 80.0,419.0 80.0,403.8 80.0,388.6 80.0,373.4 80.0,358.3 80.0,343.1 80.0,327.9 80.0,312.8 80.0,297.6 80.0,282.4 80.0,267.2 80.0,252.1 80.0,236.9 80.0,221.7 80.0,206.6 80.0,191.4 80.0,176.2 80.0,161.0 80.0,145.9 80.0,130.7 86.0,130.7 92.0,130.7 98.1,130.7 104.1,130.7 104.1,115.5 104.1,100.3 104.1,85.2 110.1,85.2 116.1,85.2 116.1,70.0 122.2,70.0 128.2,70.0 134.2,70.0 140.2,70.0 146.2,70.0 152.3,70.0 158.3,70.0 164.3,70.0 170.3,70.0 176.3,70.0 182.4,70.0 188.4,70.0 194.4,70.0 200.4,70.0 206.5,70.0 212.5,70.0 218.5,70.0 224.5,70.0 230.5,70.0 236.6,70.0 242.6,70.0 248.6,70.0 254.6,70.0 260.6,70.0 266.7,70.0 272.7,70.0 278.7,70.0 284.7,70.0 290.8,70.0 296.8,70.0 302.8,70.0 308.8,70.0 314.8,70.0 320.9,70.0 326.9,70.0 332.9,70.0 338.9,70.0 344.9,70.0 351.0,70.0 357.0,70.0 363.0,70.0 369.0,70.0 375.1,70.0 381.1,70.0 387.1,70.0 393.1,70.0 399.1,70.0 405.2,70.0 411.2,70.0 417.2,70.0 423.2,70.0 429.2,70.0 435.3,70.0 441.3,70.0 447.3,70.0 453.3,70.0 459.4,70.0 465.4,70.0 471.4,70.0 477.4,70.0 483.4,70.0 489.5,70.0 495.5,70.0 501.5,70.0 507.5,70.0 513.5,70.0 519.6,70.0 525.6,70.0 531.6,70.0 537.6,70.0 543.7,70.0 549.7,70.0 555.7,70.0 561.7,70.0 567.7,70.0 573.8,70.0 579.8,70.0 585.8,70.0 591.8,70.0 597.8,70.0 603.9,70.0 609.9,70.0 615.9,70.0 621.9,70.0 628.0,70.0 634.0,70.0 640.0,70.0 640.0,70.0" fill="none" stroke="#7854a3" stroke-width="2.6" opacity="0.92"/>
<polyline points="80.0,510.0 80.0,494.8 80.0,479.7 80.0,464.5 80.0,449.3 80.0,434.1 80.0,419.0 80.0,403.8 80.0,388.6 80.0,373.4 80.0,358.3 80.0,343.1 80.0,327.9 80.0,312.8 80.0,297.6 80.0,282.4 80.0,267.2 80.0,252.1 80.0,236.9 80.0,221.7 80.0,206.6 86.0,206.6 86.0,191.4 86.0,176.2 86.0,161.0 86.0,145.9 86.0,130.7 92.0,130.7 92.0,115.5 98.1,115.5 98.1,100.3 104.1,100.3 104.1,85.2 104.1,70.0 110.1,70.0 116.1,70.0 122.2,70.0 128.2,70.0 134.2,70.0 140.2,70.0 146.2,70.0 152.3,70.0 158.3,70.0 164.3,70.0 170.3,70.0 176.3,70.0 182.4,70.0 188.4,70.0 194.4,70.0 200.4,70.0 206.5,70.0 212.5,70.0 218.5,70.0 224.5,70.0 230.5,70.0 236.6,70.0 242.6,70.0 248.6,70.0 254.6,70.0 260.6,70.0 266.7,70.0 272.7,70.0 278.7,70.0 284.7,70.0 290.8,70.0 296.8,70.0 302.8,70.0 308.8,70.0 314.8,70.0 320.9,70.0 326.9,70.0 332.9,70.0 338.9,70.0 344.9,70.0 351.0,70.0 357.0,70.0 363.0,70.0 369.0,70.0 375.1,70.0 381.1,70.0 387.1,70.0 393.1,70.0 399.1,70.0 405.2,70.0 411.2,70.0 417.2,70.0 423.2,70.0 429.2,70.0 435.3,70.0 441.3,70.0 447.3,70.0 453.3,70.0 459.4,70.0 465.4,70.0 471.4,70.0 477.4,70.0 483.4,70.0 489.5,70.0 495.5,70.0 501.5,70.0 507.5,70.0 513.5,70.0 519.6,70.0 525.6,70.0 531.6,70.0 537.6,70.0 543.7,70.0 549.7,70.0 555.7,70.0 561.7,70.0 567.7,70.0 573.8,70.0 579.8,70.0 585.8,70.0 591.8,70.0 597.8,70.0 603.9,70.0 609.9,70.0 615.9,70.0 621.9,70.0 628.0,70.0 634.0,70.0 640.0,70.0 640.0,70.0" fill="none" stroke="#a75b8f" stroke-width="1.5" opacity="0.92"/>
<polyline points="80.0,510.0 80.0,494.8 80.0,479.7 80.0,464.5 80.0,449.3 80.0,434.1 80.0,419.0 80.0,403.8 80.0,388.6 80.0,373.4 80.0,358.3 80.0,343.1 80.0,327.9 80.0,312.8 80.0,297.6 80.0,282.4 80.0,267.2 80.0,252.1 80.0,236.9 80.0,221.7 80.0,206.6 80.0,191.4 80.0,176.2 86.0,176.2 86.0,161.0 92.0,161.0 92.0,145.9 98.1,145.9 98.1,130.7 104.1,130.7 104.1,115.5 104.1,100.3 110.1,100.3 110.1,85.2 110.1,70.0 116.1,70.0 122.2,70.0 128.2,70.0 134.2,70.0 140.2,70.0 146.2,70.0 152.3,70.0 158.3,70.0 164.3,70.0 170.3,70.0 176.3,70.0 182.4,70.0 188.4,70.0 194.4,70.0 200.4,70.0 206.5,70.0 212.5,70.0 218.5,70.0 224.5,70.0 230.5,70.0 236.6,70.0 242.6,70.0 248.6,70.0 254.6,70.0 260.6,70.0 266.7,70.0 272.7,70.0 278.7,70.0 284.7,70.0 290.8,70.0 296.8,70.0 302.8,70.0 308.8,70.0 314.8,70.0 320.9,70.0 326.9,70.0 332.9,70.0 338.9,70.0 344.9,70.0 351.0,70.0 357.0,70.0 363.0,70.0 369.0,70.0 375.1,70.0 381.1,70.0 387.1,70.0 393.1,70.0 399.1,70.0 405.2,70.0 411.2,70.0 417.2,70.0 423.2,70.0 429.2,70.0 435.3,70.0 441.3,70.0 447.3,70.0 453.3,70.0 459.4,70.0 465.4,70.0 471.4,70.0 477.4,70.0 483.4,70.0 489.5,70.0 495.5,70.0 501.5,70.0 507.5,70.0 513.5,70.0 519.6,70.0 525.6,70.0 531.6,70.0 537.6,70.0 543.7,70.0 549.7,70.0 555.7,70.0 561.7,70.0 567.7,70.0 573.8,70.0 579.8,70.0 585.8,70.0 591.8,70.0 597.8,70.0 603.9,70.0 609.9,70.0 615.9,70.0 621.9,70.0 628.0,70.0 634.0,70.0 640.0,70.0 640.0,70.0" fill="none" stroke="#6b7d2d" stroke-width="1.5" opacity="0.92"/>
<polyline points="80.0,510.0 80.0,494.8 80.0,479.7 80.0,464.5 80.0,449.3 80.0,434.1 80.0,419.0 80.0,403.8 80.0,388.6 80.0,373.4 80.0,358.3 80.0,343.1 80.0,327.9 80.0,312.8 80.0,297.6 80.0,282.4 80.0,267.2 80.0,252.1 80.0,236.9 80.0,221.7 86.0,221.7 86.0,206.6 86.0,191.4 86.0,176.2 86.0,161.0 92.0,161.0 92.0,145.9 92.0,130.7 98.1,130.7 98.1,115.5 98.1,100.3 104.1,100.3 110.1,100.3 110.1,85.2 116.1,85.2 116.1,70.0 122.2,70.0 128.2,70.0 134.2,70.0 140.2,70.0 146.2,70.0 152.3,70.0 158.3,70.0 164.3,70.0 170.3,70.0 176.3,70.0 182.4,70.0 188.4,70.0 194.4,70.0 200.4,70.0 206.5,70.0 212.5,70.0 218.5,70.0 224.5,70.0 230.5,70.0 236.6,70.0 242.6,70.0 248.6,70.0 254.6,70.0 260.6,70.0 266.7,70.0 272.7,70.0 278.7,70.0 284.7,70.0 290.8,70.0 296.8,70.0 302.8,70.0 308.8,70.0 314.8,70.0 320.9,70.0 326.9,70.0 332.9,70.0 338.9,70.0 344.9,70.0 351.0,70.0 357.0,70.0 363.0,70.0 369.0,70.0 375.1,70.0 381.1,70.0 387.1,70.0 393.1,70.0 399.1,70.0 405.2,70.0 411.2,70.0 417.2,70.0 423.2,70.0 429.2,70.0 435.3,70.0 441.3,70.0 447.3,70.0 453.3,70.0 459.4,70.0 465.4,70.0 471.4,70.0 477.4,70.0 483.4,70.0 489.5,70.0 495.5,70.0 501.5,70.0 507.5,70.0 513.5,70.0 519.6,70.0 525.6,70.0 531.6,70.0 537.6,70.0 543.7,70.0 549.7,70.0 555.7,70.0 561.7,70.0 567.7,70.0 573.8,70.0 579.8,70.0 585.8,70.0 591.8,70.0 597.8,70.0 603.9,70.0 609.9,70.0 615.9,70.0 621.9,70.0 628.0,70.0 634.0,70.0 640.0,70.0 640.0,70.0" fill="none" stroke="#4b9aa8" stroke-width="1.5" opacity="0.92"/>
<polyline points="80.0,510.0 80.0,494.8 80.0,479.7 80.0,464.5 80.0,449.3 80.0,434.1 80.0,419.0 80.0,403.8 80.0,388.6 80.0,373.4 80.0,358.3 80.0,343.1 80.0,327.9 80.0,312.8 80.0,297.6 80.0,282.4 80.0,267.2 80.0,252.1 80.0,236.9 80.0,221.7 80.0,206.6 80.0,191.4 80.0,176.2 80.0,161.0 80.0,145.9 86.0,145.9 86.0,130.7 92.0,130.7 98.1,130.7 104.1,130.7 104.1,115.5 110.1,115.5 110.1,100.3 110.1,85.2 116.1,85.2 122.2,85.2 128.2,85.2 134.2,85.2 140.2,85.2 146.2,85.2 152.3,85.2 158.3,85.2 158.3,70.0 164.3,70.0 170.3,70.0 176.3,70.0 182.4,70.0 188.4,70.0 194.4,70.0 200.4,70.0 206.5,70.0 212.5,70.0 218.5,70.0 224.5,70.0 230.5,70.0 236.6,70.0 242.6,70.0 248.6,70.0 254.6,70.0 260.6,70.0 266.7,70.0 272.7,70.0 278.7,70.0 284.7,70.0 290.8,70.0 296.8,70.0 302.8,70.0 308.8,70.0 314.8,70.0 320.9,70.0 326.9,70.0 332.9,70.0 338.9,70.0 344.9,70.0 351.0,70.0 357.0,70.0 363.0,70.0 369.0,70.0 375.1,70.0 381.1,70.0 387.1,70.0 393.1,70.0 399.1,70.0 405.2,70.0 411.2,70.0 417.2,70.0 423.2,70.0 429.2,70.0 435.3,70.0 441.3,70.0 447.3,70.0 453.3,70.0 459.4,70.0 465.4,70.0 471.4,70.0 477.4,70.0 483.4,70.0 489.5,70.0 495.5,70.0 501.5,70.0 507.5,70.0 513.5,70.0 519.6,70.0 525.6,70.0 531.6,70.0 537.6,70.0 543.7,70.0 549.7,70.0 555.7,70.0 561.7,70.0 567.7,70.0 573.8,70.0 579.8,70.0 585.8,70.0 591.8,70.0 597.8,70.0 603.9,70.0 609.9,70.0 615.9,70.0 621.9,70.0 628.0,70.0 634.0,70.0 640.0,70.0 640.0,70.0" fill="none" stroke="#c45a4a" stroke-width="2.6" opacity="0.92"/>
<polyline points="80.0,510.0 80.0,494.8 80.0,479.7 80.0,464.5 80.0,449.3 80.0,434.1 80.0,419.0 80.0,403.8 80.0,388.6 80.0,373.4 80.0,358.3 80.0,343.1 80.0,327.9 80.0,312.8 80.0,297.6 80.0,282.4 80.0,267.2 80.0,252.1 80.0,236.9 86.0,236.9 86.0,221.7 86.0,206.6 86.0,191.4 86.0,176.2 92.0,176.2 92.0,161.0 92.0,145.9 92.0,130.7 92.0,115.5 92.0,100.3 98.1,100.3 104.1,100.3 110.1,100.3 110.1,85.2 116.1,85.2 122.2,85.2 128.2,85.2 134.2,85.2 140.2,85.2 146.2,85.2 146.2,70.0 152.3,70.0 158.3,70.0 164.3,70.0 170.3,70.0 176.3,70.0 182.4,70.0 188.4,70.0 194.4,70.0 200.4,70.0 206.5,70.0 212.5,70.0 218.5,70.0 224.5,70.0 230.5,70.0 236.6,70.0 242.6,70.0 248.6,70.0 254.6,70.0 260.6,70.0 266.7,70.0 272.7,70.0 278.7,70.0 284.7,70.0 290.8,70.0 296.8,70.0 302.8,70.0 308.8,70.0 314.8,70.0 320.9,70.0 326.9,70.0 332.9,70.0 338.9,70.0 344.9,70.0 351.0,70.0 357.0,70.0 363.0,70.0 369.0,70.0 375.1,70.0 381.1,70.0 387.1,70.0 393.1,70.0 399.1,70.0 405.2,70.0 411.2,70.0 417.2,70.0 423.2,70.0 429.2,70.0 435.3,70.0 441.3,70.0 447.3,70.0 453.3,70.0 459.4,70.0 465.4,70.0 471.4,70.0 477.4,70.0 483.4,70.0 489.5,70.0 495.5,70.0 501.5,70.0 507.5,70.0 513.5,70.0 519.6,70.0 525.6,70.0 531.6,70.0 537.6,70.0 543.7,70.0 549.7,70.0 555.7,70.0 561.7,70.0 567.7,70.0 573.8,70.0 579.8,70.0 585.8,70.0 591.8,70.0 597.8,70.0 603.9,70.0 609.9,70.0 615.9,70.0 621.9,70.0 628.0,70.0 634.0,70.0 640.0,70.0 640.0,70.0" fill="none" stroke="#8a8a8a" stroke-width="1.5" opacity="0.92"/>
<polyline points="80.0,510.0 80.0,494.8 80.0,479.7 80.0,464.5 80.0,449.3 80.0,434.1 80.0,419.0 80.0,403.8 80.0,388.6 80.0,373.4 80.0,358.3 80.0,343.1 80.0,327.9 80.0,312.8 80.0,297.6 80.0,282.4 80.0,267.2 80.0,252.1 80.0,236.9 80.0,221.7 86.0,221.7 86.0,206.6 86.0,191.4 92.0,191.4 92.0,176.2 98.1,176.2 98.1,161.0 98.1,145.9 98.1,130.7 104.1,130.7 110.1,130.7 110.1,115.5 110.1,100.3 110.1,85.2 116.1,85.2 122.2,85.2 128.2,85.2 134.2,85.2 140.2,85.2 146.2,85.2 146.2,70.0 152.3,70.0 158.3,70.0 164.3,70.0 170.3,70.0 176.3,70.0 182.4,70.0 188.4,70.0 194.4,70.0 200.4,70.0 206.5,70.0 212.5,70.0 218.5,70.0 224.5,70.0 230.5,70.0 236.6,70.0 242.6,70.0 248.6,70.0 254.6,70.0 260.6,70.0 266.7,70.0 272.7,70.0 278.7,70.0 284.7,70.0 290.8,70.0 296.8,70.0 302.8,70.0 308.8,70.0 314.8,70.0 320.9,70.0 326.9,70.0 332.9,70.0 338.9,70.0 344.9,70.0 351.0,70.0 357.0,70.0 363.0,70.0 369.0,70.0 375.1,70.0 381.1,70.0 387.1,70.0 393.1,70.0 399.1,70.0 405.2,70.0 411.2,70.0 417.2,70.0 423.2,70.0 429.2,70.0 435.3,70.0 441.3,70.0 447.3,70.0 453.3,70.0 459.4,70.0 465.4,70.0 471.4,70.0 477.4,70.0 483.4,70.0 489.5,70.0 495.5,70.0 501.5,70.0 507.5,70.0 513.5,70.0 519.6,70.0 525.6,70.0 531.6,70.0 537.6,70.0 543.7,70.0 549.7,70.0 555.7,70.0 561.7,70.0 567.7,70.0 573.8,70.0 579.8,70.0 585.8,70.0 591.8,70.0 597.8,70.0 603.9,70.0 609.9,70.0 615.9,70.0 621.9,70.0 628.0,70.0 634.0,70.0 640.0,70.0 640.0,70.0" fill="none" stroke="#2f5fb3" stroke-width="2.6" opacity="0.92"/>
<text x="360.0" y="562.0" font-size="13" font-weight="600" text-anchor="middle">False positive rate</text>
<text x="24" y="290.0" font-size="13" font-weight="600" text-anchor="middle" transform="rotate(-90 24 290.0)">True positive rate</text>
<line x1="670" y1="78" x2="692" y2="78" stroke="#111111" stroke-width="2.5"/>
<text x="700.0" y="82.0" font-size="11" font-weight="400" text-anchor="start">MLP (0.999)</text>
<line x1="670" y1="102" x2="692" y2="102" stroke="#d08c2d" stroke-width="2.5"/>
<text x="700.0" y="106.0" font-size="11" font-weight="400" text-anchor="start">Sklearn Logistic Regression (0.996)</text>
<line x1="670" y1="126" x2="692" y2="126" stroke="#2f8f5b" stroke-width="2.5"/>
<text x="700.0" y="130.0" font-size="11" font-weight="400" text-anchor="start">Ensemble (0.993)</text>
<line x1="670" y1="150" x2="692" y2="150" stroke="#7854a3" stroke-width="2.5"/>
<text x="700.0" y="154.0" font-size="11" font-weight="400" text-anchor="start">Learned Ensemble (0.993)</text>
<line x1="670" y1="174" x2="692" y2="174" stroke="#a75b8f" stroke-width="2.5"/>
<text x="700.0" y="178.0" font-size="11" font-weight="400" text-anchor="start">HistGradientBoosting (0.993)</text>
<line x1="670" y1="198" x2="692" y2="198" stroke="#6b7d2d" stroke-width="2.5"/>
<text x="700.0" y="202.0" font-size="11" font-weight="400" text-anchor="start">XGBoost (0.991)</text>
<line x1="670" y1="222" x2="692" y2="222" stroke="#4b9aa8" stroke-width="2.5"/>
<text x="700.0" y="226.0" font-size="11" font-weight="400" text-anchor="start">Random Forest (0.991)</text>
<line x1="670" y1="246" x2="692" y2="246" stroke="#c45a4a" stroke-width="2.5"/>
<text x="700.0" y="250.0" font-size="11" font-weight="400" text-anchor="start">FETA-Transformer (0.990)</text>
<line x1="670" y1="270" x2="692" y2="270" stroke="#8a8a8a" stroke-width="2.5"/>
<text x="700.0" y="274.0" font-size="11" font-weight="400" text-anchor="start">Torch Logistic Regression (0.989)</text>
<line x1="670" y1="294" x2="692" y2="294" stroke="#2f5fb3" stroke-width="2.5"/>
<text x="700.0" y="298.0" font-size="11" font-weight="400" text-anchor="start">PREG-Net (0.986)</text>
</svg>
