<svg xmlns="http://www.w3.org/2000/svg" width="880" height="620" viewBox="0 0 880 620">
<rect width="100%" height="100%" fill="white"/>
<style>text{font-family:-apple-system,BlinkMacSystemFont,"Segoe UI",sans-serif;fill:#202124}.axis{stroke:#333;stroke-width:1}.grid{stroke:#e1e5ea;stroke-width:1}.label{font-size:12px}.title{font-size:18px;font-weight:700}.subtitle{font-size:12px;fill:#555}.box{fill:#f7f9fc;stroke:#7b8794;stroke-width:1.2}.arrow{stroke:#333;stroke-width:1.5;marker-end:url(#arrow)}</style>
<defs><marker id="arrow" markerWidth="10" markerHeight="10" refX="8" refY="3" orient="auto" markerUnits="strokeWidth"><path d="M0,0 L0,6 L9,3 z" fill="#333"/></marker></defs>
<text x="24.0" y="34.0" font-size="20" font-weight="700" text-anchor="start">Precision-Recall Curves On Fixed Test Split</text>
<line class="grid" x1="80.0" y1="70" x2="80.0" y2="510"/>
<line class="grid" x1="80" y1="510.0" x2="640" y2="510.0"/>
<text x="80.0" y="532.0" font-size="11" font-weight="400" text-anchor="middle">0.0</text>
<text x="64.0" y="514.0" font-size="11" font-weight="400" text-anchor="end">0.0</text>
<line class="grid" x1="192.0" y1="70" x2="192.0" y2="510"/>
<line class="grid" x1="80" y1="422.0" x2="640" y2="422.0"/>
<text x="192.0" y="532.0" font-size="11" font-weight="400" text-anchor="middle">0.2</text>
<text x="64.0" y="426.0" font-size="11" font-weight="400" text-anchor="end">0.2</text>
<line class="grid" x1="304.0" y1="70" x2="304.0" y2="510"/>
<line class="grid" x1="80" y1="334.0" x2="640" y2="334.0"/>
<text x="304.0" y="532.0" font-size="11" font-weight="400" text-anchor="middle">0.4</text>
<text x="64.0" y="338.0" font-size="11" font-weight="400" text-anchor="end">0.4</text>
<line class="grid" x1="416.0" y1="70" x2="416.0" y2="510"/>
<line class="grid" x1="80" y1="246.0" x2="640" y2="246.0"/>
<text x="416.0" y="532.0" font-size="11" font-weight="400" text-anchor="middle">0.6</text>
<text x="64.0" y="250.0" font-size="11" font-weight="400" text-anchor="end">0.6</text>
<line class="grid" x1="528.0" y1="70" x2="528.0" y2="510"/>
<line class="grid" x1="80" y1="158.0" x2="640" y2="158.0"/>
<text x="528.0" y="532.0" font-size="11" font-weight="400" text-anchor="middle">0.8</text>
<text x="64.0" y="162.0" font-size="11" font-weight="400" text-anchor="end">0.8</text>
<line class="grid" x1="640.0" y1="70" x2="640.0" y2="510"/>
<line class="grid" x1="80" y1="70.0" x2="640" y2="70.0"/>
<text x="640.0" y="532.0" font-size="11" font-weight="400" text-anchor="middle">1.0</text>
<text x="64.0" y="74.0" font-size="11" font-weight="400" text-anchor="end">1.0</text>
<line class="axis" x1="80" y1="510" x2="640" y2="510"/>
<line class="axis" x1="80" y1="70" x2="80" y2="510"/>
<polyline points="80.0,70.0 99.3,70.0 118.6,70.0 137.9,70.0 157.2,70.0 176.6,70.0 195.9,70.0 215.2,70.0 234.5,70.0 253.8,70.0 273.1,70.0 292.4,70.0 311.7,70.0 331.0,70.0 350.3,70.0 369.7,70.0 389.0,70.0 408.3,70.0 427.6,70.0 446.9,70.0 466.2,70.0 485.5,70.0 504.8,70.0 524.1,70.0 543.4,70.0 562.8,70.0 562.8,86.9 582.1,86.3 601.4,85.7 620.7,85.2 640.0,84.7 640.0,98.4 640.0,111.2 640.0,123.3 640.0,134.7 640.0,145.4 640.0,155.6 640.0,165.1 640.0,174.2 640.0,182.8 640.0,191.0 640.0,198.8 640.0,206.2 640.0,213.3 640.0,220.0 640.0,226.4 640.0,232.6 640.0,238.5 640.0,244.2 640.0,249.6 640.0,254.8 640.0,259.8 640.0,264.6 640.0,269.2 640.0,273.7 640.0,278.0 640.0,282.1 640.0,286.1 640.0,290.0 640.0,293.7 640.0,297.3 640.0,300.8 640.0,304.2 640.0,307.5 640.0,310.6 640.0,313.7 640.0,316.7 640.0,319.6 640.0,322.4 640.0,325.1 640.0,327.7 640.0,330.3 640.0,332.8 640.0,335.2 640.0,337.6 640.0,339.9 640.0,342.1 640.0,344.3 640.0,346.4 640.0,348.5 640.0,350.5 640.0,352.5 640.0,354.4 640.0,356.3 640.0,358.1 640.0,359.9 640.0,361.6 640.0,363.3 640.0,365.0 640.0,366.6 640.0,368.2 640.0,369.8 640.0,371.3 640.0,372.8 640.0,374.3 640.0,375.7 640.0,377.1 640.0,378.5 640.0,379.8 640.0,381.1 640.0,382.4 640.0,383.7 640.0,384.9 640.0,386.1 640.0,387.3 640.0,388.5 640.0,389.6 640.0,390.7 640.0,391.9 640.0,392.9 640.0,394.0 640.0,395.0 640.0,396.1 640.0,397.1 640.0,398.1 640.0,399.0 640.0,400.0 640.0,400.9 640.0,401.9 640.0,402.8 640.0,403.7 640.0,404.5 640.0,405.4" fill="none" stroke="#111111" stroke-width="1.5" opacity="0.92"/>
<polyline points="80.0,70.0 99.3,70.0 118.6,70.0 137.9,70.0 157.2,70.0 176.6,70.0 195.9,70.0 215.2,70.0 234.5,70.0 253.8,70.0 273.1,70.0 292.4,70.0 311.7,70.0 331.0,70.0 350.3,70.0 369.7,70.0 389.0,70.0 408.3,70.0 427.6,70.0 446.9,70.0 466.2,70.0 485.5,70.0 504.8,70.0 504.8,89.1 524.1,88.3 543.4,87.6 562.8,86.9 582.1,86.3 601.4,85.7 601.4,100.3 620.7,99.3 620.7,112.6 640.0,111.2 640.0,123.3 640.0,134.7 640.0,145.4 640.0,155.6 640.0,165.1 640.0,174.2 640.0,182.8 640.0,191.0 640.0,198.8 640.0,206.2 640.0,213.3 640.0,220.0 640.0,226.4 640.0,232.6 640.0,238.5 640.0,244.2 640.0,249.6 640.0,254.8 640.0,259.8 640.0,264.6 640.0,269.2 640.0,273.7 640.0,278.0 640.0,282.1 640.0,286.1 640.0,290.0 640.0,293.7 640.0,297.3 640.0,300.8 640.0,304.2 640.0,307.5 640.0,310.6 640.0,313.7 640.0,316.7 640.0,319.6 640.0,322.4 640.0,325.1 640.0,327.7 640.0,330.3 640.0,332.8 640.0,335.2 640.0,337.6 640.0,339.9 640.0,342.1 640.0,344.3 640.0,346.4 640.0,348.5 640.0,350.5 640.0,352.5 640.0,354.4 640.0,356.3 640.0,358.1 640.0,359.9 640.0,361.6 640.0,363.3 640.0,365.0 640.0,366.6 640.0,368.2 640.0,369.8 640.0,371.3 640.0,372.8 640.0,374.3 640.0,375.7 640.0,377.1 640.0,378.5 640.0,379.8 640.0,381.1 640.0,382.4 640.0,383.7 640.0,384.9 640.0,386.1 640.0,387.3 640.0,388.5 640.0,389.6 640.0,390.7 640.0,391.9 640.0,392.9 640.0,394.0 640.0,395.0 640.0,396.1 640.0,397.1 640.0,398.1 640.0,399.0 640.0,400.0 640.0,400.9 640.0,401.9 640.0,402.8 640.0,403.7 640.0,404.5 640.0,405.4" fill="none" stroke="#d08c2d" stroke-width="1.5" opacity="0.92"/>
<polyline points="80.0,70.0 99.3,70.0 118.6,70.0 137.9,70.0 157.2,70.0 176.6,70.0 195.9,70.0 215.2,70.0 234.5,70.0 253.8,70.0 273.1,70.0 292.4,70.0 311.7,70.0 331.0,70.0 350.3,70.0 369.7,70.0 389.0,70.0 408.3,70.0 427.6,70.0 446.9,70.0 466.2,70.0 485.5,70.0 504.8,70.0 524.1,70.0 543.4,70.0 562.8,70.0 562.8,86.9 562.8,102.6 562.8,117.1 562.8,130.7 582.1,128.7 601.4,126.8 620.7,125.0 620.7,136.7 620.7,147.6 640.0,145.4 640.0,155.6 640.0,165.1 640.0,174.2 640.0,182.8 640.0,191.0 640.0,198.8 640.0,206.2 640.0,213.3 640.0,220.0 640.0,226.4 640.0,232.6 640.0,238.5 640.0,244.2 640.0,249.6 640.0,254.8 640.0,259.8 640.0,264.6 640.0,269.2 640.0,273.7 640.0,278.0 640.0,282.1 640.0,286.1 640.0,290.0 640.0,293.7 640.0,297.3 640.0,300.8 640.0,304.2 640.0,307.5 640.0,310.6 640.0,313.7 640.0,316.7 640.0,319.6 640.0,322.4 640.0,325.1 640.0,327.7 640.0,330.3 640.0,332.8 640.0,335.2 640.0,337.6 640.0,339.9 640.0,342.1 640.0,344.3 640.0,346.4 640.0,348.5 640.0,350.5 640.0,352.5 640.0,354.4 640.0,356.3 640.0,358.1 640.0,359.9 640.0,361.6 640.0,363.3 640.0,365.0 640.0,366.6 640.0,368.2 640.0,369.8 640.0,371.3 640.0,372.8 640.0,374.3 640.0,375.7 640.0,377.1 640.0,378.5 640.0,379.8 640.0,381.1 640.0,382.4 640.0,383.7 640.0,384.9 640.0,386.1 640.0,387.3 640.0,388.5 640.0,389.6 640.0,390.7 640.0,391.9 640.0,392.9 640.0,394.0 640.0,395.0 640.0,396.1 640.0,397.1 640.0,398.1 640.0,399.0 640.0,400.0 640.0,400.9 640.0,401.9 640.0,402.8 640.0,403.7 640.0,404.5 640.0,405.4" fill="none" stroke="#7854a3" stroke-width="2.6" opacity="0.92"/>
<polyline points="80.0,70.0 99.3,70.0 118.6,70.0 137.9,70.0 157.2,70.0 176.6,70.0 195.9,70.0 215.2,70.0 234.5,70.0 253.8,70.0 273.1,70.0 292.4,70.0 311.7,70.0 331.0,70.0 350.3,70.0 369.7,70.0 389.0,70.0 408.3,70.0 427.6,70.0 446.9,70.0 466.2,70.0 485.5,70.0 504.8,70.0 504.8,89.1 524.1,88.3 543.4,87.6 562.8,86.9 562.8,102.6 582.1,101.4 601.4,100.3 620.7,99.3 620.7,112.6 620.7,125.0 620.7,136.7 620.7,147.6 620.7,158.0 620.7,167.8 620.7,177.0 640.0,174.2 640.0,182.8 640.0,191.0 640.0,198.8 640.0,206.2 640.0,213.3 640.0,220.0 640.0,226.4 640.0,232.6 640.0,238.5 640.0,244.2 640.0,249.6 640.0,254.8 640.0,259.8 640.0,264.6 640.0,269.2 640.0,273.7 640.0,278.0 640.0,282.1 640.0,286.1 640.0,290.0 640.0,293.7 640.0,297.3 640.0,300.8 640.0,304.2 640.0,307.5 640.0,310.6 640.0,313.7 640.0,316.7 640.0,319.6 640.0,322.4 640.0,325.1 640.0,327.7 640.0,330.3 640.0,332.8 640.0,335.2 640.0,337.6 640.0,339.9 640.0,342.1 640.0,344.3 640.0,346.4 640.0,348.5 640.0,350.5 640.0,352.5 640.0,354.4 640.0,356.3 640.0,358.1 640.0,359.9 640.0,361.6 640.0,363.3 640.0,365.0 640.0,366.6 640.0,368.2 640.0,369.8 640.0,371.3 640.0,372.8 640.0,374.3 640.0,375.7 640.0,377.1 640.0,378.5 640.0,379.8 640.0,381.1 640.0,382.4 640.0,383.7 640.0,384.9 640.0,386.1 640.0,387.3 640.0,388.5 640.0,389.6 640.0,390.7 640.0,391.9 640.0,392.9 640.0,394.0 640.0,395.0 640.0,396.1 640.0,397.1 640.0,398.1 640.0,399.0 640.0,400.0 640.0,400.9 640.0,401.9 640.0,402.8 640.0,403.7 640.0,404.5 640.0,405.4" fill="none" stroke="#2f8f5b" stroke-width="2.6" opacity="0.92"/>
<polyline points="80.0,70.0 99.3,70.0 118.6,70.0 137.9,70.0 157.2,70.0 176.6,70.0 195.9,70.0 215.2,70.0 234.5,70.0 253.8,70.0 273.1,70.0 292.4,70.0 311.7,70.0 331.0,70.0 350.3,70.0 369.7,70.0 389.0,70.0 408.3,70.0 427.6,70.0 446.9,70.0 466.2,70.0 466.2,91.0 485.5,90.0 504.8,89.1 524.1,88.3 543.4,87.6 562.8,86.9 562.8,102.6 582.1,101.4 582.1,115.5 601.4,114.0 601.4,126.8 620.7,125.0 640.0,123.3 640.0,134.7 640.0,145.4 640.0,155.6 640.0,165.1 640.0,174.2 640.0,182.8 640.0,191.0 640.0,198.8 640.0,206.2 640.0,213.3 640.0,220.0 640.0,226.4 640.0,232.6 640.0,238.5 640.0,244.2 640.0,249.6 640.0,254.8 640.0,259.8 640.0,264.6 640.0,269.2 640.0,273.7 640.0,278.0 640.0,282.1 640.0,286.1 640.0,290.0 640.0,293.7 640.0,297.3 640.0,300.8 640.0,304.2 640.0,307.5 640.0,310.6 640.0,313.7 640.0,316.7 640.0,319.6 640.0,322.4 640.0,325.1 640.0,327.7 640.0,330.3 640.0,332.8 640.0,335.2 640.0,337.6 640.0,339.9 640.0,342.1 640.0,344.3 640.0,346.4 640.0,348.5 640.0,350.5 640.0,352.5 640.0,354.4 640.0,356.3 640.0,358.1 640.0,359.9 640.0,361.6 640.0,363.3 640.0,365.0 640.0,366.6 640.0,368.2 640.0,369.8 640.0,371.3 640.0,372.8 640.0,374.3 640.0,375.7 640.0,377.1 640.0,378.5 640.0,379.8 640.0,381.1 640.0,382.4 640.0,383.7 640.0,384.9 640.0,386.1 640.0,387.3 640.0,388.5 640.0,389.6 640.0,390.7 640.0,391.9 640.0,392.9 640.0,394.0 640.0,395.0 640.0,396.1 640.0,397.1 640.0,398.1 640.0,399.0 640.0,400.0 640.0,400.9 640.0,401.9 640.0,402.8 640.0,403.7 640.0,404.5 640.0,405.4" fill="none" stroke="#a75b8f" stroke-width="1.5" opacity="0.92"/>
<polyline points="80.0,70.0 99.3,70.0 118.6,70.0 137.9,70.0 157.2,70.0 176.6,70.0 195.9,70.0 215.2,70.0 234.5,70.0 253.8,70.0 273.1,70.0 292.4,70.0 311.7,70.0 331.0,70.0 350.3,70.0 369.7,70.0 389.0,70.0 408.3,70.0 427.6,70.0 446.9,70.0 466.2,70.0 485.5,70.0 504.8,70.0 504.8,89.1 524.1,88.3 524.1,105.2 543.4,103.8 543.4,118.9 562.8,117.1 562.8,130.7 582.1,128.7 601.4,126.8 601.4,138.8 620.7,136.7 640.0,134.7 640.0,145.4 640.0,155.6 640.0,165.1 640.0,174.2 640.0,182.8 640.0,191.0 640.0,198.8 640.0,206.2 640.0,213.3 640.0,220.0 640.0,226.4 640.0,232.6 640.0,238.5 640.0,244.2 640.0,249.6 640.0,254.8 640.0,259.8 640.0,264.6 640.0,269.2 640.0,273.7 640.0,278.0 640.0,282.1 640.0,286.1 640.0,290.0 640.0,293.7 640.0,297.3 640.0,300.8 640.0,304.2 640.0,307.5 640.0,310.6 640.0,313.7 640.0,316.7 640.0,319.6 640.0,322.4 640.0,325.1 640.0,327.7 640.0,330.3 640.0,332.8 640.0,335.2 640.0,337.6 640.0,339.9 640.0,342.1 640.0,344.3 640.0,346.4 640.0,348.5 640.0,350.5 640.0,352.5 640.0,354.4 640.0,356.3 640.0,358.1 640.0,359.9 640.0,361.6 640.0,363.3 640.0,365.0 640.0,366.6 640.0,368.2 640.0,369.8 640.0,371.3 640.0,372.8 640.0,374.3 640.0,375.7 640.0,377.1 640.0,378.5 640.0,379.8 640.0,381.1 640.0,382.4 640.0,383.7 640.0,384.9 640.0,386.1 640.0,387.3 640.0,388.5 640.0,389.6 640.0,390.7 640.0,391.9 640.0,392.9 640.0,394.0 640.0,395.0 640.0,396.1 640.0,397.1 640.0,398.1 640.0,399.0 640.0,400.0 640.0,400.9 640.0,401.9 640.0,402.8 640.0,403.7 640.0,404.5 640.0,405.4" fill="none" stroke="#6b7d2d" stroke-width="1.5" opacity="0.92"/>
<polyline points="80.0,70.0 99.3,70.0 118.6,70.0 137.9,70.0 157.2,70.0 176.6,70.0 195.9,70.0 215.2,70.0 234.5,70.0 253.8,70.0 273.1,70.0 292.4,70.0 311.7,70.0 331.0,70.0 350.3,70.0 369.7,70.0 389.0,70.0 408.3,70.0 427.6,70.0 446.9,70.0 466.2,70.0 485.5,70.0 504.8,70.0 524.1,70.0 543.4,70.0 543.4,87.6 562.8,86.9 562.8,102.6 562.8,117.1 562.8,130.7 582.1,128.7 582.1,141.0 601.4,138.8 620.7,136.7 620.7,147.6 620.7,158.0 620.7,167.8 620.7,177.0 620.7,185.8 620.7,194.1 620.7,202.0 620.7,209.5 640.0,206.2 640.0,213.3 640.0,220.0 640.0,226.4 640.0,232.6 640.0,238.5 640.0,244.2 640.0,249.6 640.0,254.8 640.0,259.8 640.0,264.6 640.0,269.2 640.0,273.7 640.0,278.0 640.0,282.1 640.0,286.1 640.0,290.0 640.0,293.7 640.0,297.3 640.0,300.8 640.0,304.2 640.0,307.5 640.0,310.6 640.0,313.7 640.0,316.7 640.0,319.6 640.0,322.4 640.0,325.1 640.0,327.7 640.0,330.3 640.0,332.8 640.0,335.2 640.0,337.6 640.0,339.9 640.0,342.1 640.0,344.3 640.0,346.4 640.0,348.5 640.0,350.5 640.0,352.5 640.0,354.4 640.0,356.3 640.0,358.1 640.0,359.9 640.0,361.6 640.0,363.3 640.0,365.0 640.0,366.6 640.0,368.2 640.0,369.8 640.0,371.3 640.0,372.8 640.0,374.3 640.0,375.7 640.0,377.1 640.0,378.5 640.0,379.8 640.0,381.1 640.0,382.4 640.0,383.7 640.0,384.9 640.0,386.1 640.0,387.3 640.0,388.5 640.0,389.6 640.0,390.7 640.0,391.9 640.0,392.9 640.0,394.0 640.0,395.0 640.0,396.1 640.0,397.1 640.0,398.1 640.0,399.0 640.0,400.0 640.0,400.9 640.0,401.9 640.0,402.8 640.0,403.7 640.0,404.5 640.0,405.4" fill="none" stroke="#c45a4a" stroke-width="2.6" opacity="0.92"/>
<polyline points="80.0,70.0 99.3,70.0 118.6,70.0 137.9,70.0 157.2,70.0 176.6,70.0 195.9,70.0 215.2,70.0 234.5,70.0 253.8,70.0 273.1,70.0 292.4,70.0 311.7,70.0 331.0,70.0 350.3,70.0 369.7,70.0 389.0,70.0 408.3,70.0 427.6,70.0 446.9,70.0 446.9,92.0 466.2,91.0 485.5,90.0 504.8,89.1 524.1,88.3 524.1,105.2 543.4,103.8 562.8,102.6 562.8,117.1 582.1,115.5 601.4,114.0 601.4,126.8 601.4,138.8 620.7,136.7 620.7,147.6 640.0,145.4 640.0,155.6 640.0,165.1 640.0,174.2 640.0,182.8 640.0,191.0 640.0,198.8 640.0,206.2 640.0,213.3 640.0,220.0 640.0,226.4 640.0,232.6 640.0,238.5 640.0,244.2 640.0,249.6 640.0,254.8 640.0,259.8 640.0,264.6 640.0,269.2 640.0,273.7 640.0,278.0 640.0,282.1 640.0,286.1 640.0,290.0 640.0,293.7 640.0,297.3 640.0,300.8 640.0,304.2 640.0,307.5 640.0,310.6 640.0,313.7 640.0,316.7 640.0,319.6 640.0,322.4 640.0,325.1 640.0,327.7 640.0,330.3 640.0,332.8 640.0,335.2 640.0,337.6 640.0,339.9 640.0,342.1 640.0,344.3 640.0,346.4 640.0,348.5 640.0,350.5 640.0,352.5 640.0,354.4 640.0,356.3 640.0,358.1 640.0,359.9 640.0,361.6 640.0,363.3 640.0,365.0 640.0,366.6 640.0,368.2 640.0,369.8 640.0,371.3 640.0,372.8 640.0,374.3 640.0,375.7 640.0,377.1 640.0,378.5 640.0,379.8 640.0,381.1 640.0,382.4 640.0,383.7 640.0,384.9 640.0,386.1 640.0,387.3 640.0,388.5 640.0,389.6 640.0,390.7 640.0,391.9 640.0,392.9 640.0,394.0 640.0,395.0 640.0,396.1 640.0,397.1 640.0,398.1 640.0,399.0 640.0,400.0 640.0,400.9 640.0,401.9 640.0,402.8 640.0,403.7 640.0,404.5 640.0,405.4" fill="none" stroke="#4b9aa8" stroke-width="1.5" opacity="0.92"/>
<polyline points="80.0,70.0 99.3,70.0 118.6,70.0 137.9,70.0 157.2,70.0 176.6,70.0 195.9,70.0 215.2,70.0 234.5,70.0 253.8,70.0 273.1,70.0 292.4,70.0 311.7,70.0 331.0,70.0 350.3,70.0 369.7,70.0 389.0,70.0 408.3,70.0 427.6,70.0 427.6,93.2 446.9,92.0 466.2,91.0 485.5,90.0 504.8,89.1 504.8,106.7 524.1,105.2 543.4,103.8 562.8,102.6 582.1,101.4 601.4,100.3 601.4,114.0 601.4,126.8 601.4,138.8 620.7,136.7 620.7,147.6 620.7,158.0 620.7,167.8 620.7,177.0 620.7,185.8 620.7,194.1 640.0,191.0 640.0,198.8 640.0,206.2 640.0,213.3 640.0,220.0 640.0,226.4 640.0,232.6 640.0,238.5 640.0,244.2 640.0,249.6 640.0,254.8 640.0,259.8 640.0,264.6 640.0,269.2 640.0,273.7 640.0,278.0 640.0,282.1 640.0,286.1 640.0,290.0 640.0,293.7 640.0,297.3 640.0,300.8 640.0,304.2 640.0,307.5 640.0,310.6 640.0,313.7 640.0,316.7 640.0,319.6 640.0,322.4 640.0,325.1 640.0,327.7 640.0,330.3 640.0,332.8 640.0,335.2 640.0,337.6 640.0,339.9 640.0,342.1 640.0,344.3 640.0,346.4 640.0,348.5 640.0,350.5 640.0,352.5 640.0,354.4 640.0,356.3 640.0,358.1 640.0,359.9 640.0,361.6 640.0,363.3 640.0,365.0 640.0,366.6 640.0,368.2 640.0,369.8 640.0,371.3 640.0,372.8 640.0,374.3 640.0,375.7 640.0,377.1 640.0,378.5 640.0,379.8 640.0,381.1 640.0,382.4 640.0,383.7 640.0,384.9 640.0,386.1 640.0,387.3 640.0,388.5 640.0,389.6 640.0,390.7 640.0,391.9 640.0,392.9 640.0,394.0 640.0,395.0 640.0,396.1 640.0,397.1 640.0,398.1 640.0,399.0 640.0,400.0 640.0,400.9 640.0,401.9 640.0,402.8 640.0,403.7 640.0,404.5 640.0,405.4" fill="none" stroke="#8a8a8a" stroke-width="1.5" opacity="0.92"/>
<polyline points="80.0,70.0 99.3,70.0 118.6,70.0 137.9,70.0 157.2,70.0 176.6,70.0 195.9,70.0 215.2,70.0 234.5,70.0 253.8,70.0 273.1,70.0 292.4,70.0 311.7,70.0 331.0,70.0 350.3,70.0 369.7,70.0 389.0,70.0 408.3,70.0 427.6,70.0 446.9,70.0 446.9,92.0 466.2,91.0 485.5,90.0 485.5,108.3 504.8,106.7 504.8,122.8 524.1,120.8 543.4,118.9 562.8,117.1 562.8,130.7 562.8,143.3 582.1,141.0 601.4,138.8 620.7,136.7 620.7,147.6 620.7,158.0 620.7,167.8 620.7,177.0 620.7,185.8 620.7,194.1 640.0,191.0 640.0,198.8 640.0,206.2 640.0,213.3 640.0,220.0 640.0,226.4 640.0,232.6 640.0,238.5 640.0,244.2 640.0,249.6 640.0,254.8 640.0,259.8 640.0,264.6 640.0,269.2 640.0,273.7 640.0,278.0 640.0,282.1 640.0,286.1 640.0,290.0 640.0,293.7 640.0,297.3 640.0,300.8 640.0,304.2 640.0,307.5 640.0,310.6 640.0,313.7 640.0,316.7 640.0,319.6 640.0,322.4 640.0,325.1 640.0,327.7 640.0,330.3 640.0,332.8 640.0,335.2 640.0,337.6 640.0,339.9 640.0,342.1 640.0,344.3 640.0,346.4 640.0,348.5 640.0,350.5 640.0,352.5 640.0,354.4 640.0,356.3 640.0,358.1 640.0,359.9 640.0,361.6 640.0,363.3 640.0,365.0 640.0,366.6 640.0,368.2 640.0,369.8 640.0,371.3 640.0,372.8 640.0,374.3 640.0,375.7 640.0,377.1 640.0,378.5 640.0,379.8 640.0,381.1 640.0,382.4 640.0,383.7 640.0,384.9 640.0,386.1 640.0,387.3 640.0,388.5 640.0,389.6 640.0,390.7 640.0,391.9 640.0,392.9 640.0,394.0 640.0,395.0 640.0,396.1 640.0,397.1 640.0,398.1 640.0,399.0 640.0,400.0 640.0,400.9 640.0,401.9 640.0,402.8 640.0,403.7 640.0,404.5 640.0,405.4" fill="none" stroke="#2f5fb3" stroke-width="2.6" opacity="0.92"/>
<text x="360.0" y="562.0" font-size="13" font-weight="600" text-anchor="middle">Recall</text>
<text x="24" y="290.0" font-size="13" font-weight="600" text-anchor="middle" transform="rotate(-90 24 290.0)">Precision</text>
<line x1="670" y1="78" x2="692" y2="78" stroke="#111111" stroke-width="2.5"/>
<text x="700.0" y="82.0" font-size="11" font-weight="400" text-anchor="start">MLP (0.995)</text>
<line x1="670" y1="102" x2="692" y2="102" stroke="#d08c2d" stroke-width="2.5"/>
<text x="700.0" y="106.0" font-size="11" font-weight="400" text-anchor="start">Sklearn Logistic Regression (0.988)</text>
<line x1="670" y1="126" x2="692" y2="126" stroke="#7854a3" stroke-width="2.5"/>
<text x="700.0" y="130.0" font-size="11" font-weight="400" text-anchor="start">Learned Ensemble (0.981)</text>
<line x1="670" y1="150" x2="692" y2="150" stroke="#2f8f5b" stroke-width="2.5"/>
<text x="700.0" y="154.0" font-size="11" font-weight="400" text-anchor="start">Ensemble (0.981)</text>
<line x1="670" y1="174" x2="692" y2="174" stroke="#a75b8f" stroke-width="2.5"/>
<text x="700.0" y="178.0" font-size="11" font-weight="400" text-anchor="start">HistGradientBoosting (0.978)</text>
<line x1="670" y1="198" x2="692" y2="198" stroke="#6b7d2d" stroke-width="2.5"/>
<text x="700.0" y="202.0" font-size="11" font-weight="400" text-anchor="start">XGBoost (0.973)</text>
<line x1="670" y1="222" x2="692" y2="222" stroke="#c45a4a" stroke-width="2.5"/>
<text x="700.0" y="226.0" font-size="11" font-weight="400" text-anchor="start">FETA-Transformer (0.973)</text>
<line x1="670" y1="246" x2="692" y2="246" stroke="#4b9aa8" stroke-width="2.5"/>
<text x="700.0" y="250.0" font-size="11" font-weight="400" text-anchor="start">Random Forest (0.970)</text>
<line x1="670" y1="270" x2="692" y2="270" stroke="#8a8a8a" stroke-width="2.5"/>
<text x="700.0" y="274.0" font-size="11" font-weight="400" text-anchor="start">Torch Logistic Regression (0.966)</text>
<line x1="670" y1="294" x2="692" y2="294" stroke="#2f5fb3" stroke-width="2.5"/>
<text x="700.0" y="298.0" font-size="11" font-weight="400" text-anchor="start">PREG-Net (0.957)</text>
</svg>
