<svg xmlns="http://www.w3.org/2000/svg" width="920" height="620" viewBox="0 0 920 620">
<rect width="100%" height="100%" fill="white"/>
<style>text{font-family:-apple-system,BlinkMacSystemFont,"Segoe UI",sans-serif;fill:#222}.axis{stroke:#333;stroke-width:1}.grid{stroke:#e5e5e5;stroke-width:1}.ongoing{fill:none;stroke:#5f9e6e;stroke-width:1.6;opacity:.7}.loss{fill:none;stroke:#cc5b5b;stroke-width:1.6;opacity:.7}.patient{fill:none;stroke:#111;stroke-width:2.4}.point{fill:#111}</style>
<text x="24" y="32" font-size="18" font-weight="700">P00089: false positive</text>
<text x="24" y="54" font-size="12">Black = selected patient; green/red = outcome-specific mean by rounded gestational week.</text>
<text x="70" y="56" font-size="14" font-weight="600">FHR</text>
<line class="grid" x1="70.0" y1="70" x2="70.0" y2="280"/>
<text x="64.0" y="298" font-size="10">5</text>
<line class="grid" x1="122.0" y1="70" x2="122.0" y2="280"/>
<text x="116.0" y="298" font-size="10">6</text>
<line class="grid" x1="174.0" y1="70" x2="174.0" y2="280"/>
<text x="168.0" y="298" font-size="10">7</text>
<line class="grid" x1="226.0" y1="70" x2="226.0" y2="280"/>
<text x="220.0" y="298" font-size="10">8</text>
<line class="grid" x1="278.0" y1="70" x2="278.0" y2="280"/>
<text x="272.0" y="298" font-size="10">9</text>
<line class="grid" x1="330.0" y1="70" x2="330.0" y2="280"/>
<text x="324.0" y="298" font-size="10">10</text>
<line class="grid" x1="382.0" y1="70" x2="382.0" y2="280"/>
<text x="376.0" y="298" font-size="10">11</text>
<line class="grid" x1="434.0" y1="70" x2="434.0" y2="280"/>
<text x="428.0" y="298" font-size="10">12</text>
<line class="axis" x1="70" y1="280" x2="460" y2="280"/>
<line class="axis" x1="70" y1="70" x2="70" y2="280"/>
<polyline class="ongoing" points="70.0,232.8 122.0,195.3 174.0,180.3 226.0,148.6 278.0,122.9 330.0,106.8 382.0,96.8 434.0,92.8 486.0,91.9 538.0,92.6" />
<polyline class="loss" points="70.0,242.0 122.0,215.5 174.0,208.4 226.0,186.4 278.0,180.2 330.0,160.5 382.0,160.4 434.0,154.3 486.0,157.3 538.0,177.1" />
<polyline class="patient" points="148.0,218.4 246.8,159.7 345.6,137.3 454.8,130.2" />
<circle class="point" cx="148.0" cy="218.4" r="3.5"/>
<circle class="point" cx="246.8" cy="159.7" r="3.5"/>
<circle class="point" cx="345.6" cy="137.3" r="3.5"/>
<circle class="point" cx="454.8" cy="130.2" r="3.5"/>
<text x="500" y="56" font-size="14" font-weight="600">CRL</text>
<line class="grid" x1="500.0" y1="70" x2="500.0" y2="280"/>
<text x="494.0" y="298" font-size="10">5</text>
<line class="grid" x1="552.0" y1="70" x2="552.0" y2="280"/>
<text x="546.0" y="298" font-size="10">6</text>
<line class="grid" x1="604.0" y1="70" x2="604.0" y2="280"/>
<text x="598.0" y="298" font-size="10">7</text>
<line class="grid" x1="656.0" y1="70" x2="656.0" y2="280"/>
<text x="650.0" y="298" font-size="10">8</text>
<line class="grid" x1="708.0" y1="70" x2="708.0" y2="280"/>
<text x="702.0" y="298" font-size="10">9</text>
<line class="grid" x1="760.0" y1="70" x2="760.0" y2="280"/>
<text x="754.0" y="298" font-size="10">10</text>
<line class="grid" x1="812.0" y1="70" x2="812.0" y2="280"/>
<text x="806.0" y="298" font-size="10">11</text>
<line class="grid" x1="864.0" y1="70" x2="864.0" y2="280"/>
<text x="858.0" y="298" font-size="10">12</text>
<line class="axis" x1="500" y1="280" x2="890" y2="280"/>
<line class="axis" x1="500" y1="70" x2="500" y2="280"/>
<polyline class="ongoing" points="500.0,263.5 552.0,263.1 604.0,259.1 656.0,245.7 708.0,231.4 760.0,210.8 812.0,190.1 864.0,162.1 916.0,135.0 968.0,113.2" />
<polyline class="loss" points="500.0,263.0 552.0,262.7 604.0,259.8 656.0,251.2 708.0,245.3 760.0,226.2 812.0,211.5 864.0,196.8 916.0,172.6 968.0,146.0" />
<polyline class="patient" points="578.0,263.4 676.8,238.9 775.6,212.9 884.8,159.6" />
<circle class="point" cx="578.0" cy="263.4" r="3.5"/>
<circle class="point" cx="676.8" cy="238.9" r="3.5"/>
<circle class="point" cx="775.6" cy="212.9" r="3.5"/>
<circle class="point" cx="884.8" cy="159.6" r="3.5"/>
<text x="70" y="336" font-size="14" font-weight="600">GS</text>
<line class="grid" x1="70.0" y1="350" x2="70.0" y2="560"/>
<text x="64.0" y="578" font-size="10">5</text>
<line class="grid" x1="122.0" y1="350" x2="122.0" y2="560"/>
<text x="116.0" y="578" font-size="10">6</text>
<line class="grid" x1="174.0" y1="350" x2="174.0" y2="560"/>
<text x="168.0" y="578" font-size="10">7</text>
<line class="grid" x1="226.0" y1="350" x2="226.0" y2="560"/>
<text x="220.0" y="578" font-size="10">8</text>
<line class="grid" x1="278.0" y1="350" x2="278.0" y2="560"/>
<text x="272.0" y="578" font-size="10">9</text>
<line class="grid" x1="330.0" y1="350" x2="330.0" y2="560"/>
<text x="324.0" y="578" font-size="10">10</text>
<line class="grid" x1="382.0" y1="350" x2="382.0" y2="560"/>
<text x="376.0" y="578" font-size="10">11</text>
<line class="grid" x1="434.0" y1="350" x2="434.0" y2="560"/>
<text x="428.0" y="578" font-size="10">12</text>
<line class="axis" x1="70" y1="560" x2="460" y2="560"/>
<line class="axis" x1="70" y1="350" x2="70" y2="560"/>
<polyline class="ongoing" points="70.0,537.2 122.0,531.8 174.0,530.4 226.0,524.2 278.0,516.9 330.0,502.4 382.0,490.2 434.0,463.5 486.0,434.6 538.0,411.1" />
<polyline class="loss" points="70.0,534.2 122.0,533.9 174.0,533.6 226.0,525.1 278.0,527.3 330.0,515.6 382.0,509.3 434.0,496.1 486.0,469.2 538.0,452.2" />
<polyline class="patient" points="148.0,541.7 246.8,545.5 345.6,477.1 454.8,458.8" />
<circle class="point" cx="148.0" cy="541.7" r="3.5"/>
<circle class="point" cx="246.8" cy="545.5" r="3.5"/>
<circle class="point" cx="345.6" cy="477.1" r="3.5"/>
<circle class="point" cx="454.8" cy="458.8" r="3.5"/>
<text x="500" y="336" font-size="14" font-weight="600">YSD</text>
<line class="grid" x1="500.0" y1="350" x2="500.0" y2="560"/>
<text x="494.0" y="578" font-size="10">5</text>
<line class="grid" x1="552.0" y1="350" x2="552.0" y2="560"/>
<text x="546.0" y="578" font-size="10">6</text>
<line class="grid" x1="604.0" y1="350" x2="604.0" y2="560"/>
<text x="598.0" y="578" font-size="10">7</text>
<line class="grid" x1="656.0" y1="350" x2="656.0" y2="560"/>
<text x="650.0" y="578" font-size="10">8</text>
<line class="grid" x1="708.0" y1="350" x2="708.0" y2="560"/>
<text x="702.0" y="578" font-size="10">9</text>
<line class="grid" x1="760.0" y1="350" x2="760.0" y2="560"/>
<text x="754.0" y="578" font-size="10">10</text>
<line class="grid" x1="812.0" y1="350" x2="812.0" y2="560"/>
<text x="806.0" y="578" font-size="10">11</text>
<line class="grid" x1="864.0" y1="350" x2="864.0" y2="560"/>
<text x="858.0" y="578" font-size="10">12</text>
<line class="axis" x1="500" y1="560" x2="890" y2="560"/>
<line class="axis" x1="500" y1="350" x2="500" y2="560"/>
<polyline class="ongoing" points="500.0,468.6 552.0,457.9 604.0,444.6 656.0,433.5 708.0,425.9 760.0,423.4 812.0,425.1 864.0,427.6 916.0,439.5 968.0,450.0" />
<polyline class="loss" points="500.0,479.9 552.0,477.3 604.0,476.4 656.0,462.4 708.0,468.8 760.0,462.2 812.0,467.3 864.0,475.0 916.0,464.4 968.0,469.5" />
<polyline class="patient" points="578.0,473.1 676.8,447.8 775.6,444.1 884.8,444.1" />
<circle class="point" cx="578.0" cy="473.1" r="3.5"/>
<circle class="point" cx="676.8" cy="447.8" r="3.5"/>
<circle class="point" cx="775.6" cy="444.1" r="3.5"/>
<circle class="point" cx="884.8" cy="444.1" r="3.5"/>
</svg>
