<svg xmlns="http://www.w3.org/2000/svg" width="860" height="430" viewBox="0 0 860 430">
<rect width="100%" height="100%" fill="white"/>
<style>text{font-family:-apple-system,BlinkMacSystemFont,"Segoe UI",sans-serif;fill:#222}.edge{fill:none;stroke-linecap:round}.phys{stroke:#5c77b8}.temp{stroke:#999}.mat{stroke:#c77736}.temporal{fill:#e8f0fe;stroke:#2f5fb3}.maternal{fill:#fff2df;stroke:#b56723}</style>
<text x="22" y="28" font-size="18" font-weight="700">P00320: true negative</text>
<text x="22" y="49" font-size="12">PREG-Net probability 0.000; node size = readout importance; edge width = mean GAT attention.</text>
<line class="edge phys" x1="210.0" y1="170.0" x2="210.0" y2="235.0" stroke-width="5.00" opacity="0.90"/>
<line class="edge temp" x1="322.0" y1="300.0" x2="210.0" y2="300.0" stroke-width="4.52" opacity="0.82"/>
<line class="edge phys" x1="322.0" y1="105.0" x2="322.0" y2="300.0" stroke-width="4.44" opacity="0.81"/>
<line class="edge phys" x1="322.0" y1="170.0" x2="322.0" y2="235.0" stroke-width="4.30" opacity="0.79"/>
<line class="edge phys" x1="210.0" y1="105.0" x2="210.0" y2="300.0" stroke-width="4.01" opacity="0.74"/>
<line class="edge phys" x1="210.0" y1="170.0" x2="210.0" y2="105.0" stroke-width="3.98" opacity="0.73"/>
<line class="edge temp" x1="322.0" y1="105.0" x2="210.0" y2="105.0" stroke-width="3.92" opacity="0.72"/>
<line class="edge phys" x1="322.0" y1="300.0" x2="322.0" y2="235.0" stroke-width="3.81" opacity="0.71"/>
<line class="edge temp" x1="322.0" y1="170.0" x2="210.0" y2="170.0" stroke-width="3.81" opacity="0.70"/>
<line class="edge phys" x1="322.0" y1="300.0" x2="322.0" y2="105.0" stroke-width="3.69" opacity="0.69"/>
<line class="edge mat" x1="70.0" y1="250.0" x2="322.0" y2="300.0" stroke-width="3.67" opacity="0.68"/>
<line class="edge temp" x1="210.0" y1="170.0" x2="322.0" y2="170.0" stroke-width="3.63" opacity="0.68"/>
<line class="edge mat" x1="70.0" y1="250.0" x2="210.0" y2="235.0" stroke-width="3.46" opacity="0.65"/>
<line class="edge mat" x1="70.0" y1="70.0" x2="322.0" y2="300.0" stroke-width="3.44" opacity="0.64"/>
<line class="edge phys" x1="322.0" y1="105.0" x2="322.0" y2="170.0" stroke-width="3.27" opacity="0.62"/>
<line class="edge phys" x1="210.0" y1="105.0" x2="210.0" y2="170.0" stroke-width="3.26" opacity="0.61"/>
<line class="edge phys" x1="322.0" y1="235.0" x2="322.0" y2="300.0" stroke-width="3.22" opacity="0.61"/>
<line class="edge temp" x1="210.0" y1="105.0" x2="322.0" y2="105.0" stroke-width="3.20" opacity="0.61"/>
<line class="edge mat" x1="70.0" y1="250.0" x2="210.0" y2="300.0" stroke-width="3.17" opacity="0.60"/>
<line class="edge phys" x1="210.0" y1="235.0" x2="210.0" y2="300.0" stroke-width="3.04" opacity="0.58"/>
<line class="edge mat" x1="70.0" y1="160.0" x2="322.0" y2="170.0" stroke-width="2.92" opacity="0.56"/>
<line class="edge mat" x1="70.0" y1="250.0" x2="322.0" y2="235.0" stroke-width="2.92" opacity="0.56"/>
<line class="edge mat" x1="70.0" y1="250.0" x2="210.0" y2="105.0" stroke-width="2.91" opacity="0.56"/>
<line class="edge temp" x1="210.0" y1="235.0" x2="322.0" y2="235.0" stroke-width="2.90" opacity="0.56"/>
<line class="edge mat" x1="70.0" y1="115.0" x2="210.0" y2="300.0" stroke-width="2.87" opacity="0.55"/>
<line class="edge mat" x1="70.0" y1="160.0" x2="322.0" y2="105.0" stroke-width="2.87" opacity="0.55"/>
<line class="edge mat" x1="70.0" y1="250.0" x2="210.0" y2="170.0" stroke-width="2.86" opacity="0.55"/>
<line class="edge temp" x1="322.0" y1="235.0" x2="210.0" y2="235.0" stroke-width="2.80" opacity="0.54"/>
<circle class="temporal" cx="210.0" cy="105.0" r="7.1" stroke-width="1.2"/>
<text x="221.1" y="109.0" font-size="10">FHR_t1</text>
<circle class="temporal" cx="210.0" cy="170.0" r="7.0" stroke-width="1.2"/>
<text x="221.0" y="174.0" font-size="10">CRL_t1</text>
<circle class="temporal" cx="210.0" cy="235.0" r="7.1" stroke-width="1.2"/>
<text x="221.1" y="239.0" font-size="10">GS_t1</text>
<circle class="temporal" cx="210.0" cy="300.0" r="7.3" stroke-width="1.2"/>
<text x="221.3" y="304.0" font-size="10">YSD_t1</text>
<circle class="temporal" cx="322.0" cy="105.0" r="25.0" stroke-width="1.2"/>
<text x="351.0" y="109.0" font-size="10">FHR_t2</text>
<circle class="temporal" cx="322.0" cy="170.0" r="7.0" stroke-width="1.2"/>
<text x="333.0" y="174.0" font-size="10">CRL_t2</text>
<circle class="temporal" cx="322.0" cy="235.0" r="7.2" stroke-width="1.2"/>
<text x="333.2" y="239.0" font-size="10">GS_t2</text>
<circle class="temporal" cx="322.0" cy="300.0" r="7.2" stroke-width="1.2"/>
<text x="333.2" y="304.0" font-size="10">YSD_t2</text>
<circle class="maternal" cx="70.0" cy="70.0" r="7.0" stroke-width="1.2"/>
<text x="81.0" y="74.0" font-size="10">age</text>
<circle class="maternal" cx="70.0" cy="115.0" r="7.0" stroke-width="1.2"/>
<text x="81.0" y="119.0" font-size="10">bmi</text>
<circle class="maternal" cx="70.0" cy="160.0" r="7.0" stroke-width="1.2"/>
<text x="81.0" y="164.0" font-size="10">parity</text>
<circle class="maternal" cx="70.0" cy="205.0" r="7.2" stroke-width="1.2"/>
<text x="81.2" y="209.0" font-size="10">gravidity</text>
<circle class="maternal" cx="70.0" cy="250.0" r="7.0" stroke-width="1.2"/>
<text x="81.0" y="254.0" font-size="10">previous_loss</text>
<circle class="maternal" cx="70.0" cy="295.0" r="7.0" stroke-width="1.2"/>
<text x="81.0" y="299.0" font-size="10">conception_ivf</text>
<circle class="maternal" cx="70.0" cy="340.0" r="7.5" stroke-width="1.2"/>
<text x="81.5" y="344.0" font-size="10">singleton</text>
</svg>
